<?xml version="1.0" standalone="no"?>
<!DOCTYPE svg PUBLIC "-//W3C//DTD SVG 20010904//EN"
 "http://www.w3.org/TR/2001/REC-SVG-20010904/DTD/svg10.dtd">
<svg version="1.0" xmlns="http://www.w3.org/2000/svg"
 width="1024.000000pt" height="1024.000000pt" viewBox="0 0 1024.000000 1024.000000"
 preserveAspectRatio="xMidYMid meet">
<metadata>
Created by potrace 1.11, written by Peter Selinger 2001-2013
</metadata>
<g transform="translate(0.000000,1024.000000) scale(0.100000,-0.100000)"
fill="#000000" stroke="none">
<path d="M5010 9625 c-156 -42 -287 -176 -316 -321 -5 -22 -9 -42 -10 -46 -1
-5 -2 -21 -3 -37 -1 -30 -9 -36 -61 -45 -46 -7 -114 -27 -238 -68 -100 -33
-128 -47 -152 -75 -28 -32 -30 -39 -30 -117 l0 -82 -57 -23 c-185 -75 -376
-195 -507 -320 -213 -204 -372 -501 -432 -806 -2 -11 -8 -42 -14 -70 -5 -27
-12 -68 -14 -90 -11 -93 -18 -179 -21 -236 l-2 -61 -101 -101 c-322 -324 -465
-476 -478 -504 -10 -24 -14 -81 -14 -228 l0 -195 -110 0 -110 0 -24 48 c-62
123 -191 195 -336 188 -183 -9 -331 -159 -336 -339 -5 -155 67 -274 206 -341
57 -27 75 -31 150 -31 74 0 93 4 150 31 75 36 132 89 166 157 l24 47 110 0
110 0 0 -179 c0 -98 3 -193 6 -210 13 -62 56 -89 370 -230 469 -211 443 -198
450 -229 47 -215 162 -481 272 -630 14 -18 23 -34 21 -37 -3 -2 -137 -5 -299
-6 -162 -1 -326 -6 -363 -11 -567 -77 -1032 -491 -1173 -1044 -20 -80 -30
-137 -39 -234 -2 -14 -3 -78 -4 -142 l-1 -118 -27 0 c-46 0 -182 -38 -263 -73
-265 -115 -492 -374 -593 -679 -22 -64 -52 -192 -71 -298 -3 -14 -15 -73 -27
-132 -25 -121 -21 -162 18 -209 22 -26 105 -74 117 -66 1 1 9 -3 17 -10 19
-15 406 -158 599 -221 272 -89 843 -245 1015 -278 59 -11 275 -57 305 -64 19
-5 53 -11 75 -14 22 -4 63 -11 90 -16 28 -5 64 -12 80 -15 17 -3 39 -7 50 -9
18 -3 56 -9 138 -22 15 -2 39 -6 55 -8 15 -3 45 -7 67 -11 22 -3 54 -8 70 -10
17 -2 84 -11 150 -20 173 -22 180 -23 355 -40 36 -3 83 -8 105 -10 22 -2 81
-7 130 -10 50 -4 108 -8 130 -10 298 -27 1108 -27 1470 0 187 13 223 16 250
20 17 2 64 7 105 10 72 6 116 10 190 20 19 2 60 7 90 10 30 3 100 13 155 20
55 8 123 17 150 20 28 4 57 8 65 10 8 2 35 7 60 10 83 12 525 94 610 114 47
11 96 22 110 25 14 3 34 7 45 10 11 2 52 11 91 20 78 17 412 102 459 117 17 5
68 20 115 34 410 116 917 298 1014 363 70 47 87 111 61 232 -2 13 -16 90 -30
170 -30 179 -54 264 -103 379 -107 247 -321 469 -549 569 -75 33 -205 70 -262
74 -18 1 -35 7 -36 13 -2 5 -6 75 -9 155 -6 174 -11 215 -40 328 -130 495
-512 878 -1008 1008 -35 9 -74 18 -88 20 -113 18 -192 22 -445 23 -159 1 -291
3 -293 5 -1 2 14 30 35 62 21 33 44 68 51 79 12 20 107 212 122 250 21 50 60
175 71 228 7 32 17 64 23 71 9 12 94 52 356 168 175 78 377 172 396 185 27 18
53 54 58 85 3 13 5 105 5 206 l1 182 110 0 110 0 24 -47 c35 -69 91 -122 166
-157 57 -27 76 -31 150 -31 75 0 93 4 150 31 82 40 134 92 174 174 26 54 31
78 32 145 2 72 -1 88 -31 150 -18 39 -47 85 -65 103 -169 174 -467 133 -576
-80 l-24 -48 -110 0 -110 0 0 188 c0 103 -5 203 -10 222 -10 34 -125 157 -472
506 -107 109 -110 113 -113 160 -6 106 -17 240 -20 254 -2 8 -6 29 -9 45 -14
84 -18 103 -28 140 -5 22 -12 49 -14 61 -8 45 -67 211 -97 274 -27 56 -109
203 -117 210 -4 3 -21 28 -40 55 -63 93 -240 259 -362 338 -99 64 -268 150
-335 171 -21 7 -23 13 -23 83 0 96 -18 135 -73 161 -53 25 -210 75 -321 103
-82 21 -86 23 -87 50 -1 16 -2 32 -3 37 -1 4 -5 24 -10 46 -27 137 -154 271
-301 318 -46 15 -185 17 -235 3z"/>
</g>
</svg>
